<svg width="22" height="18" viewBox="0 0 22 18" fill="none" xmlns="http://www.w3.org/2000/svg">
<path fill-rule="evenodd" clip-rule="evenodd" d="M0.5 9C0.5 8.51675 0.891751 8.125 1.375 8.125H20.625C21.1082 8.125 21.5 8.51675 21.5 9C21.5 9.48325 21.1082 9.875 20.625 9.875H1.375C0.891751 9.875 0.5 9.48325 0.5 9Z" fill="#EBEBEB"/>
<path d="M11 3.75C11.9665 3.75 12.75 2.9665 12.75 2C12.75 1.0335 11.9665 0.25 11 0.25C10.0335 0.25 9.25 1.0335 9.25 2C9.25 2.9665 10.0335 3.75 11 3.75Z" fill="#EBEBEB"/>
<path d="M11 17.75C11.9665 17.75 12.75 16.9665 12.75 16C12.75 15.0335 11.9665 14.25 11 14.25C10.0335 14.25 9.25 15.0335 9.25 16C9.25 16.9665 10.0335 17.75 11 17.75Z" fill="#EBEBEB"/>
</svg>
