<svg width="20" height="20" viewBox="0 0 20 20" fill="none" xmlns="http://www.w3.org/2000/svg">
<path fill-rule="evenodd" clip-rule="evenodd" d="M18.4937 1.50628C18.8354 1.84799 18.8354 2.40201 18.4937 2.74372L2.74372 18.4937C2.40201 18.8354 1.84799 18.8354 1.50628 18.4937C1.16457 18.152 1.16457 17.598 1.50628 17.2563L17.2563 1.50628C17.598 1.16457 18.152 1.16457 18.4937 1.50628Z" fill="#EBEBEB"/>
<path fill-rule="evenodd" clip-rule="evenodd" d="M4.3125 2.125C3.10438 2.125 2.125 3.10438 2.125 4.3125C2.125 5.52062 3.10438 6.5 4.3125 6.5C5.52062 6.5 6.5 5.52062 6.5 4.3125C6.5 3.10438 5.52062 2.125 4.3125 2.125ZM0.375 4.3125C0.375 2.13788 2.13788 0.375 4.3125 0.375C6.48712 0.375 8.25 2.13788 8.25 4.3125C8.25 6.48712 6.48712 8.25 4.3125 8.25C2.13788 8.25 0.375 6.48712 0.375 4.3125Z" fill="#EBEBEB"/>
<path fill-rule="evenodd" clip-rule="evenodd" d="M15.6875 13.5C14.4794 13.5 13.5 14.4794 13.5 15.6875C13.5 16.8956 14.4794 17.875 15.6875 17.875C16.8956 17.875 17.875 16.8956 17.875 15.6875C17.875 14.4794 16.8956 13.5 15.6875 13.5ZM11.75 15.6875C11.75 13.5129 13.5129 11.75 15.6875 11.75C17.8621 11.75 19.625 13.5129 19.625 15.6875C19.625 17.8621 17.8621 19.625 15.6875 19.625C13.5129 19.625 11.75 17.8621 11.75 15.6875Z" fill="#EBEBEB"/>
</svg>
