<svg width="24" height="21" viewBox="0 0 24 21" fill="none" xmlns="http://www.w3.org/2000/svg">
<path fill-rule="evenodd" clip-rule="evenodd" d="M20.4937 3.50628C20.8354 3.84799 20.8354 4.40201 20.4937 4.74372L4.74372 20.4937C4.40201 20.8354 3.84799 20.8354 3.50628 20.4937C3.16457 20.152 3.16457 19.598 3.50628 19.2563L19.2563 3.50628C19.598 3.16457 20.152 3.16457 20.4937 3.50628Z" fill="#EBEBEB"/>
<path fill-rule="evenodd" clip-rule="evenodd" d="M0.625 5.875C0.625 5.39175 1.01675 5 1.5 5H10.25C10.7332 5 11.125 5.39175 11.125 5.875C11.125 6.35825 10.7332 6.75 10.25 6.75H1.5C1.01675 6.75 0.625 6.35825 0.625 5.875Z" fill="#EBEBEB"/>
<path fill-rule="evenodd" clip-rule="evenodd" d="M5.875 0.625C6.35825 0.625 6.75 1.01675 6.75 1.5V10.25C6.75 10.7332 6.35825 11.125 5.875 11.125C5.39175 11.125 5 10.7332 5 10.25V1.5C5 1.01675 5.39175 0.625 5.875 0.625Z" fill="#EBEBEB"/>
<path fill-rule="evenodd" clip-rule="evenodd" d="M12.875 18.125C12.875 17.6418 13.2668 17.25 13.75 17.25H22.5C22.9832 17.25 23.375 17.6418 23.375 18.125C23.375 18.6082 22.9832 19 22.5 19H13.75C13.2668 19 12.875 18.6082 12.875 18.125Z" fill="#EBEBEB"/>
</svg>
